<?xml version="1.0" encoding="UTF-8" standalone="no"?>
<!-- Created with Inkscape (http://www.inkscape.org/) -->

<svg
   version="1.1"
   id="svg2"
   xml:space="preserve"
   width="1959.7587"
   height="1858.6759"
   viewBox="0 0 1959.7586 1858.6759"
   sodipodi:docname="GG-Square.svg"
   inkscape:version="1.1 (c68e22c387, 2021-05-23)"
   xmlns:inkscape="http://www.inkscape.org/namespaces/inkscape"
   xmlns:sodipodi="http://sodipodi.sourceforge.net/DTD/sodipodi-0.dtd"
   xmlns="http://www.w3.org/2000/svg"
   xmlns:svg="http://www.w3.org/2000/svg"><defs
     id="defs6"><clipPath
       clipPathUnits="userSpaceOnUse"
       id="clipPath16"><path
         d="M 205.364,131.532 H 1794 V 1869.103 H 205.364 Z"
         id="path14" /></clipPath><clipPath
       clipPathUnits="userSpaceOnUse"
       id="clipPath50"><path
         d="M 0,2000 H 2000 V 0 H 0 Z"
         id="path48" /></clipPath><clipPath
       clipPathUnits="userSpaceOnUse"
       id="clipPath90"><path
         d="M 0,2000 H 2000 V 0 H 0 Z"
         id="path88" /></clipPath><clipPath
       clipPathUnits="userSpaceOnUse"
       id="clipPath142"><path
         d="M 0,2000 H 2000 V 0 H 0 Z"
         id="path140" /></clipPath></defs><sodipodi:namedview
     id="namedview4"
     pagecolor="#ffffff"
     bordercolor="#999999"
     borderopacity="1"
     inkscape:pageshadow="0"
     inkscape:pageopacity="0"
     inkscape:pagecheckerboard="0"
     showgrid="false"
     inkscape:zoom="0.35355339"
     inkscape:cx="1104.5008"
     inkscape:cy="889.54033"
     inkscape:window-width="1920"
     inkscape:window-height="1009"
     inkscape:window-x="1912"
     inkscape:window-y="332"
     inkscape:window-maximized="1"
     inkscape:current-layer="g8" /><g
     id="g8"
     inkscape:groupmode="layer"
     inkscape:label="Georgia Grace Logo"
     transform="matrix(1.3333333,0,0,-1.3333333,-353.45399,2262.6713)"><g
       id="g24"
       transform="translate(1282.9541,828.8145)"
       style="stroke:#008c95;stroke-opacity:1"><path
         d="M 0,0 V -519.318 H -1011.363 V 740.099 h 843.181 V 351.062"
         style="fill:none;stroke:#008c95;stroke-width:13;stroke-linecap:square;stroke-linejoin:miter;stroke-miterlimit:10;stroke-dasharray:none;stroke-opacity:1"
         id="path26" /></g><g
       id="g28"
       transform="translate(1114.7725,1171.1855)"
       style="stroke:#8986ca;stroke-opacity:1"><path
         d="M 0,0 H -397.727 V 519.318 H 613.637 V -740.099 h -843.182 v 397.728"
         style="fill:none;stroke:#8986ca;stroke-width:13;stroke-linecap:square;stroke-linejoin:miter;stroke-miterlimit:10;stroke-dasharray:none;stroke-opacity:1"
         id="path30" /></g><g
       id="g32"
       transform="translate(1114.7725,1568.9131)"
       style="stroke:#008c95;stroke-opacity:1"><path
         d="M 0,0 H -843.182"
         style="fill:none;stroke:#008c95;stroke-width:13;stroke-linecap:square;stroke-linejoin:miter;stroke-miterlimit:10;stroke-dasharray:none;stroke-opacity:1"
         id="path34" /></g><g
       id="g36"
       transform="translate(1282.9541,828.8145)"
       style="stroke:#008c95;stroke-opacity:1"><path
         d="M 0,0 H -397.727"
         style="fill:none;stroke:#008c95;stroke-width:13;stroke-linecap:square;stroke-linejoin:miter;stroke-miterlimit:10;stroke-dasharray:none;stroke-opacity:1"
         id="path38" /></g><g
       aria-label="GEORGIA"
       transform="matrix(1,0,0,-1,20.233411,0)"
       id="text42"
       style="font-size:146.237px;font-family:'BlackGold vp';-inkscape-font-specification:'BlackGold vp';fill:#8080c0;stroke:#8080c0;stroke-width:1.5;stroke-miterlimit:4;stroke-dasharray:none;stroke-opacity:1"><path
         d="m 421.56483,-1051.2561 c -13.74627,0 -26.61513,5.2645 -36.41301,14.9162 -20.03447,20.0344 -20.03447,52.64529 0,72.67976 9.65164,9.65164 22.5205,15.06241 36.12054,15.06241 0,0 0.14624,0 0.29247,0 0,0 0,0 0,0 8.18928,0 16.52479,-2.04731 23.83664,-5.84948 v 5.55701 c 0,0.14624 0.14623,0.29247 0.29247,0.29247 h 11.8452 c 0,0 0,0 0,0 h 9.79788 c 0.14623,0 0.29247,-0.14623 0.29247,-0.43871 0,-0.14623 -0.14624,-0.29247 -0.29247,-0.29247 -5.1183,0 -9.35917,-4.24087 -9.35917,-9.35917 v -31.58719 c 0,-4.09464 -2.63227,-7.75056 -6.28819,-9.21293 h 5.84948 c 0.29247,0 0.43871,-0.29248 0.43871,-0.43871 0,-0.29249 -0.14624,-0.43869 -0.43871,-0.43869 h -11.8452 c 0,0 -0.14624,0 -0.14624,0 -0.14623,0.1462 -0.14623,0.2924 -0.14623,0.43869 v 44.60228 c -7.31185,3.9484 -15.64736,5.99572 -23.83664,5.99572 -0.14623,0 -0.29247,0 -0.29247,0 -21.20436,-0.29248 -38.46033,-22.81297 -38.46033,-50.598 0,-27.93129 17.4022,-50.59799 38.7528,-50.59799 0,0 0,0 0,0 8.48175,0 16.9635,2.1935 24.27535,6.2882 0,0 0.14623,0 0.14623,0 0,0 0,0 0,0 0.14624,0.1462 0.43871,0.2924 0.58495,0.2924 0,0 0.14624,0 0.14624,0 0,0 0,0 0,0 3.80216,2.1936 7.31185,4.9721 10.52906,8.0431 v 5.9957 c 0,0.2925 0.14624,0.4387 0.29248,0.4387 0.29247,0 0.43871,-0.1462 0.43871,-0.4387 0,0 0,-21.0581 0,-21.0581 0,-0.1463 -0.14624,-0.4387 -0.43871,-0.4387 -0.14624,0 -0.29248,0.2924 -0.29248,0.4387 0,3.9484 -3.21721,7.1656 -7.16561,7.1656 -1.02366,0 -2.04732,-0.2925 -3.07098,-0.7312 -0.29247,-0.1462 -0.43871,-0.2925 -0.73118,-0.4387 0,0 0,0 0,0 0,0 0,0 0,0 0,0 0,0 0,0 -7.45809,-4.0946 -16.08607,-6.2882 -24.71406,-6.2882 z"
         id="path855"
         style="stroke:#8080c0;stroke-width:1.5;stroke-miterlimit:4;stroke-dasharray:none;stroke-opacity:1" /><path
         d="m 482.69165,-949.32891 c -0.14624,0 -0.29247,0.14624 -0.29247,0.29247 0,0.29248 0.14623,0.43871 0.29247,0.43871 h 9.79788 c 0,0 0,0 0,0 h 11.8452 c 0,0 0,0 0,0 h 51.62166 c 0.29247,0 0.43871,-0.14623 0.43871,-0.43871 0,0 0,0 0,0 0,0 0,0 0,0 v -21.3506 c 0,-0.29247 -0.14624,-0.43871 -0.43871,-0.43871 -0.14624,0 -0.29248,0.14624 -0.29248,0.43871 0,11.55272 -9.5054,21.05813 -21.05813,21.05813 0,0 0,0 0,0 H 504.6272 v -50.15929 h 19.59576 c 0,0 0,0 0,0 5.11829,0 9.35917,4.09463 9.35917,9.21293 0,0.29247 0.14623,0.43871 0.43871,0.43871 0.14623,0 0.29247,-0.14624 0.29247,-0.43871 v -19.44953 c 0,-0.1462 -0.14624,-0.2925 -0.29247,-0.2925 -0.29248,0 -0.43871,0.1463 -0.43871,0.2925 0,5.2645 -4.24088,9.3592 -9.35917,9.3592 0,0 0,0 0,0 H 504.6272 v -40.8001 c 0,-4.2409 -2.48603,-7.8968 -6.14195,-9.3592 h 36.12053 c 0,0 0,0 0,0 11.55273,0 21.05813,9.5054 21.05813,21.0581 0,0.1462 0.14624,0.4387 0.29248,0.4387 0.29247,0 0.43871,-0.2925 0.43871,-0.4387 0,0 0,-21.4968 0,-21.4968 0,-0.1463 -0.14624,-0.4387 -0.43871,-0.4387 h -61.41954 c 0,0 0,0.1462 0,0.1462 h -11.8452 c -0.14624,0 -0.29247,0.1462 -0.29247,0.2925 0,0.2924 0.14623,0.4387 0.29247,0.4387 5.1183,0 9.35917,4.2409 9.35917,9.3592 v 82.47762 c 0,5.1183 -4.24087,9.35917 -9.35917,9.35917 z"
         id="path857"
         style="stroke:#8080c0;stroke-width:1.5;stroke-miterlimit:4;stroke-dasharray:none;stroke-opacity:1" /><path
         d="m 622.494,-948.59773 c 28.36998,0 51.32919,-22.95921 51.32919,-51.32918 0,-28.36999 -22.95921,-51.32919 -51.32919,-51.32919 -28.36997,0 -51.32918,22.9592 -51.32918,51.32919 0,28.36997 22.95921,51.32918 51.32918,51.32918 z m 0,-0.73118 c -21.3506,0 -38.7528,-22.66674 -38.7528,-50.598 0,-27.93129 17.4022,-50.59799 38.7528,-50.59799 21.35061,0 38.75281,22.6667 38.75281,50.59799 0,27.93126 -17.4022,50.598 -38.75281,50.598 z"
         id="path859"
         style="stroke:#8080c0;stroke-width:1.5;stroke-miterlimit:4;stroke-dasharray:none;stroke-opacity:1" /><path
         d="m 678.6487,-949.32891 c -0.14624,0 -0.29248,0.14624 -0.29248,0.29247 0,0.29248 0.14624,0.43871 0.29248,0.43871 h 9.79788 c 0,0 0,0 0,0 h 11.84519 c 0,0 0,0 0,0 h 9.65164 c 0.29248,0 0.43872,-0.14623 0.43872,-0.43871 0,-0.14623 -0.14624,-0.29247 -0.43872,-0.29247 -5.11829,0 -9.35916,-4.24087 -9.35916,-9.35917 v -40.80012 h 25.88395 c 0,0 0,0 0,0 7.31185,0 13.30756,11.26025 13.30756,25.00652 v 15.7936 c 0,5.55701 4.53335,10.09035 10.09036,10.09035 h 11.84519 c 0.14624,0 0.43871,-0.14623 0.43871,-0.29247 0,-0.29247 -0.29247,-0.43871 -0.43871,-0.43871 -5.11829,0 -9.35917,-4.24087 -9.35917,-9.35917 v -15.7936 c 0,-12.72261 -9.21293,-23.39792 -21.3506,-25.44523 12.13767,-2.19359 21.3506,-12.72259 21.3506,-25.44529 0,-14.3312 -11.55272,-25.8839 -25.88394,-25.8839 h -35.97431 c 0,0 0,0 0,0 H 678.6487 c -0.14624,0 -0.29248,0.1462 -0.29248,0.2925 0,0.2924 0.14624,0.4387 0.29248,0.4387 5.11829,0 9.35916,4.2409 9.35916,9.3592 v 82.47762 c 0,5.1183 -4.24087,9.35917 -9.35916,9.35917 z m 47.8195,-101.19599 c 7.31185,0 13.30756,11.2602 13.30756,25.1527 0,13.7463 -5.99571,25.0066 -13.30756,25.0066 0,0 0,0 0,0 h -25.88395 v -40.8001 c 0,-4.2409 -2.48603,-7.8968 -6.14196,-9.3592 z"
         id="path861"
         style="stroke:#8080c0;stroke-width:1.5;stroke-miterlimit:4;stroke-dasharray:none;stroke-opacity:1" /><path
         d="m 814.94133,-1051.2561 c -13.74628,0 -26.61513,5.2645 -36.41301,14.9162 -20.03447,20.0344 -20.03447,52.64529 0,72.67976 9.65164,9.65164 22.52049,15.06241 36.12054,15.06241 0,0 0.14623,0 0.29247,0 0,0 0,0 0,0 8.18927,0 16.52478,-2.04731 23.83663,-5.84948 v 5.55701 c 0,0.14624 0.14624,0.29247 0.29247,0.29247 h 11.8452 c 0,0 0,0 0,0 h 9.79788 c 0.14624,0 0.29247,-0.14623 0.29247,-0.43871 0,-0.14623 -0.14623,-0.29247 -0.29247,-0.29247 -5.11829,0 -9.35917,-4.24087 -9.35917,-9.35917 v -31.58719 c 0,-4.09464 -2.63226,-7.75056 -6.28819,-9.21293 h 5.84948 c 0.29248,0 0.43871,-0.29248 0.43871,-0.43871 0,-0.29249 -0.14623,-0.43869 -0.43871,-0.43869 h -11.8452 c 0,0 -0.14623,0 -0.14623,0 -0.14624,0.1462 -0.14624,0.2924 -0.14624,0.43869 v 44.60228 c -7.31185,3.9484 -15.64736,5.99572 -23.83663,5.99572 -0.14624,0 -0.29247,0 -0.29247,0 -21.20437,-0.29248 -38.46034,-22.81297 -38.46034,-50.598 0,-27.93129 17.40221,-50.59799 38.75281,-50.59799 0,0 0,0 0,0 8.48175,0 16.96349,2.1935 24.27534,6.2882 0,0 0.14624,0 0.14624,0 0,0 0,0 0,0 0.14624,0.1462 0.43871,0.2924 0.58495,0.2924 0,0 0.14623,0 0.14623,0 0,0 0,0 0,0 3.80217,2.1936 7.31185,4.9721 10.52907,8.0431 v 5.9957 c 0,0.2925 0.14623,0.4387 0.29247,0.4387 0.29248,0 0.43871,-0.1462 0.43871,-0.4387 0,0 0,-21.0581 0,-21.0581 0,-0.1463 -0.14623,-0.4387 -0.43871,-0.4387 -0.14624,0 -0.29247,0.2924 -0.29247,0.4387 0,3.9484 -3.21722,7.1656 -7.16562,7.1656 -1.02365,0 -2.04731,-0.2925 -3.07097,-0.7312 -0.29248,-0.1462 -0.43871,-0.2925 -0.73119,-0.4387 0,0 0,0 0,0 0,0 0,0 0,0 0,0 0,0 0,0 -7.45808,-4.0946 -16.08607,-6.2882 -24.71405,-6.2882 z"
         id="path863"
         style="stroke:#8080c0;stroke-width:1.5;stroke-miterlimit:4;stroke-dasharray:none;stroke-opacity:1" /><path
         d="m 876.06816,-949.32891 c -0.14624,0 -0.29247,0.14624 -0.29247,0.29247 0,0.29248 0.14623,0.43871 0.29247,0.43871 h 9.79788 c 0,0 0,0 0,0 h 11.8452 c 0,0 0,0 0,0 h 9.65164 c 0.29247,0 0.43871,-0.14623 0.43871,-0.43871 0,-0.14623 -0.14624,-0.29247 -0.43871,-0.29247 -5.1183,0 -9.35917,-4.24087 -9.35917,-9.35917 v -82.47762 c 0,-5.1183 4.24087,-9.3592 9.35917,-9.3592 0.29247,0 0.43871,-0.1463 0.43871,-0.4387 0,-0.1463 -0.14624,-0.2925 -0.43871,-0.2925 h -31.29472 c -0.14624,0 -0.29247,0.1462 -0.29247,0.2925 0,0.2924 0.14623,0.4387 0.29247,0.4387 5.1183,0 9.35917,4.2409 9.35917,9.3592 v 82.47762 c 0,5.1183 -4.24087,9.35917 -9.35917,9.35917 z"
         id="path865"
         style="stroke:#8080c0;stroke-width:1.5;stroke-miterlimit:4;stroke-dasharray:none;stroke-opacity:1" /><path
         d="m 922.71751,-949.32891 c -0.14623,0 -0.29247,0.14624 -0.29247,0.29247 0,0.29248 0.14624,0.43871 0.29247,0.43871 h 9.79788 c 0,0 0,0 0,0 0,0 0,0 0,0 h 9.65164 c 0.29248,0 0.43872,-0.14623 0.43872,-0.43871 0,-0.14623 -0.14624,-0.29247 -0.43872,-0.29247 -2.33979,0 -4.24087,-0.87742 -5.557,-2.48603 -1.31613,-1.75484 -1.46237,-4.24087 -0.73119,-6.7269 l 22.22803,-71.21746 22.08178,71.21746 v 0 c 0,0 0,0 0,0 v 0 c 0.73119,2.48603 0.58495,4.97206 -0.73118,6.7269 -1.1699,1.60861 -3.21721,2.48603 -5.55701,2.48603 -0.29247,0 -0.43871,0.14624 -0.43871,0.29247 0,0.29248 0.14624,0.43871 0.43871,0.43871 h 9.65165 c 0,0 0,0 0,0 h 12.43014 c 0,0 0,0 0,0 h 9.79785 c 0.1463,0 0.2925,-0.14623 0.2925,-0.43871 0,-0.14623 -0.1462,-0.29247 -0.2925,-0.29247 -5.2645,0 -10.82151,-4.24087 -12.43012,-9.50541 l -28.66245,-92.27558 c 0,0 0,0 0,0 v 0 c 0,0 0,0 0,0 0,0 -0.14623,0 -0.14623,0 0,0 0,0 0,0 0,-0.1462 0,-0.1462 0,-0.1462 0,0 0,0 0,0 -0.14624,0 -0.14624,0 -0.14624,0 0,0 0,0 0,0 0,0 0,0 0,0 0,0 -0.14624,0 -0.14624,0 0,0 0,-0.1462 0,-0.1462 0,0 0,0.1462 0,0.1462 0,0 -0.14624,0 -0.14624,0 0,0 0,0 0,0 0,0 0,0 0,0 -0.14623,0 -0.14623,0 -0.14623,0 0,0 0,0 0,0.1462 0,0 0,0 0,0 0,0 0,0 -0.14624,0 l -6.14195,20.0345 -22.5205,72.24108 c -1.60861,5.26454 -7.16561,9.50541 -12.43015,9.50541 z"
         id="path867"
         style="stroke:#8080c0;stroke-width:1.5;stroke-miterlimit:4;stroke-dasharray:none;stroke-opacity:1" /></g><g
       aria-label="GRACE"
       transform="matrix(1,0,0,-1,20.233411,0)"
       id="text82"
       style="font-size:146.237px;font-family:'BlackGold vp';-inkscape-font-specification:'BlackGold vp';fill:#008c95;stroke:#008080;stroke-width:1.5;stroke-miterlimit:4;stroke-dasharray:none;stroke-opacity:1;fill-opacity:1"><path
         d="m 1177.3125,-1051.2561 c -13.7462,0 -26.6151,5.2645 -36.413,14.9162 -20.0344,20.0344 -20.0344,52.64529 0,72.67976 9.6517,9.65164 22.5205,15.06241 36.1206,15.06241 0,0 0.1462,0 0.2924,0 0,0 0,0 0,0 8.1893,0 16.5248,-2.04731 23.8367,-5.84948 v 5.55701 c 0,0.14624 0.1462,0.29247 0.2925,0.29247 h 11.8451 c 0,0 0,0 0,0 h 9.7979 c 0.1463,0 0.2925,-0.14623 0.2925,-0.43871 0,-0.14623 -0.1462,-0.29247 -0.2925,-0.29247 -5.1183,0 -9.3591,-4.24087 -9.3591,-9.35917 v -31.58719 c 0,-4.09464 -2.6323,-7.75056 -6.2882,-9.21293 h 5.8494 c 0.2925,0 0.4388,-0.29248 0.4388,-0.43871 0,-0.29249 -0.1463,-0.43869 -0.4388,-0.43869 h -11.8451 c 0,0 -0.1463,0 -0.1463,0 -0.1462,0.1462 -0.1462,0.2924 -0.1462,0.43869 v 44.60228 c -7.3119,3.9484 -15.6474,5.99572 -23.8367,5.99572 -0.1462,0 -0.2924,0 -0.2924,0 -21.2044,-0.29248 -38.4604,-22.81297 -38.4604,-50.598 0,-27.93129 17.4022,-50.59799 38.7528,-50.59799 0,0 0,0 0,0 8.4818,0 16.9635,2.1935 24.2754,6.2882 0,0 0.1462,0 0.1462,0 0,0 0,0 0,0 0.1463,0.1462 0.4387,0.2924 0.585,0.2924 0,0 0.1462,0 0.1462,0 0,0 0,0 0,0 3.8022,2.1936 7.3119,4.9721 10.5291,8.0431 v 5.9957 c 0,0.2925 0.1462,0.4387 0.2924,0.4387 0.2925,0 0.4388,-0.1462 0.4388,-0.4387 0,0 0,-21.0581 0,-21.0581 0,-0.1463 -0.1463,-0.4387 -0.4388,-0.4387 -0.1462,0 -0.2924,0.2924 -0.2924,0.4387 0,3.9484 -3.2172,7.1656 -7.1656,7.1656 -1.0237,0 -2.0474,-0.2925 -3.071,-0.7312 -0.2925,-0.1462 -0.4387,-0.2925 -0.7312,-0.4387 0,0 0,0 0,0 0,0 0,0 0,0 0,0 0,0 0,0 -7.4581,-4.0946 -16.0861,-6.2882 -24.7141,-6.2882 z"
         id="path844"
         style="stroke:#008080;stroke-width:1.5;stroke-miterlimit:4;stroke-dasharray:none;stroke-opacity:1;fill:#008c95;fill-opacity:1" /><path
         d="m 1238.4394,-949.32891 c -0.1463,0 -0.2925,0.14624 -0.2925,0.29247 0,0.29248 0.1462,0.43871 0.2925,0.43871 h 9.7978 c 0,0 0,0 0,0 h 11.8452 c 0,0 0,0 0,0 h 9.6517 c 0.2925,0 0.4387,-0.14623 0.4387,-0.43871 0,-0.14623 -0.1462,-0.29247 -0.4387,-0.29247 -5.1183,0 -9.3592,-4.24087 -9.3592,-9.35917 v -40.80012 h 25.884 c 0,0 0,0 0,0 7.3118,0 13.3075,11.26025 13.3075,25.00652 v 15.7936 c 0,5.55701 4.5334,10.09035 10.0904,10.09035 h 11.8452 c 0.1462,0 0.4387,-0.14623 0.4387,-0.29247 0,-0.29247 -0.2925,-0.43871 -0.4387,-0.43871 -5.1183,0 -9.3592,-4.24087 -9.3592,-9.35917 v -15.7936 c 0,-12.72261 -9.2129,-23.39792 -21.3506,-25.44523 12.1377,-2.19359 21.3506,-12.72259 21.3506,-25.44529 0,-14.3312 -11.5527,-25.8839 -25.8839,-25.8839 h -35.9743 c 0,0 0,0 0,0 h -11.8452 c -0.1463,0 -0.2925,0.1462 -0.2925,0.2925 0,0.2924 0.1462,0.4387 0.2925,0.4387 5.1183,0 9.3591,4.2409 9.3591,9.3592 v 82.47762 c 0,5.1183 -4.2408,9.35917 -9.3591,9.35917 z m 47.8195,-101.19599 c 7.3118,0 13.3075,11.2602 13.3075,25.1527 0,13.7463 -5.9957,25.0066 -13.3075,25.0066 0,0 0,0 0,0 h -25.884 v -40.8001 c 0,-4.2409 -2.486,-7.8968 -6.1419,-9.3592 z"
         id="path846"
         style="stroke:#008080;stroke-width:1.5;stroke-miterlimit:4;stroke-dasharray:none;stroke-opacity:1;fill:#008c95;fill-opacity:1" /><path
         d="m 1336.8566,-949.32891 c -0.1462,0 -0.2924,0.14624 -0.2924,0.29247 0,0.29248 0.1462,0.43871 0.2924,0.43871 h 9.7979 c 0,0 0,0 0,0 0,0 0,0 0,0 h 9.6517 c 0.2924,0 0.4387,-0.14623 0.4387,-0.43871 0,-0.14623 -0.1463,-0.29247 -0.4387,-0.29247 -2.3398,0 -4.2409,-0.87742 -5.557,-2.48603 -1.3162,-1.75484 -1.4624,-4.24087 -0.7312,-6.7269 l 22.228,-71.21746 22.0818,71.21746 v 0 c 0,0 0,0 0,0 v 0 c 0.7312,2.48603 0.5849,4.97206 -0.7312,6.7269 -1.1699,1.60861 -3.2172,2.48603 -5.557,2.48603 -0.2925,0 -0.4387,0.14624 -0.4387,0.29247 0,0.29248 0.1462,0.43871 0.4387,0.43871 h 9.6516 c 0,0 0,0 0,0 h 12.4302 c 0,0 0,0 0,0 h 9.7979 c 0.1462,0 0.2924,-0.14623 0.2924,-0.43871 0,-0.14623 -0.1462,-0.29247 -0.2924,-0.29247 -5.2646,0 -10.8216,-4.24087 -12.4302,-9.50541 l -28.6624,-92.27558 c 0,0 0,0 0,0 v 0 c 0,0 0,0 0,0 0,0 -0.1463,0 -0.1463,0 0,0 0,0 0,0 0,-0.1462 0,-0.1462 0,-0.1462 0,0 0,0 0,0 -0.1462,0 -0.1462,0 -0.1462,0 0,0 0,0 0,0 0,0 0,0 0,0 0,0 -0.1462,0 -0.1462,0 0,0 0,-0.1462 0,-0.1462 0,0 0,0.1462 0,0.1462 0,0 -0.1463,0 -0.1463,0 0,0 0,0 0,0 0,0 0,0 0,0 -0.1462,0 -0.1462,0 -0.1462,0 0,0 0,0 0,0.1462 0,0 0,0 0,0 0,0 0,0 -0.1463,0 l -6.1419,20.0345 -22.5205,72.24108 c -1.6086,5.26454 -7.1656,9.50541 -12.4302,9.50541 z"
         id="path848"
         style="stroke:#008080;stroke-width:1.5;stroke-miterlimit:4;stroke-dasharray:none;stroke-opacity:1;fill:#008c95;fill-opacity:1" /><path
         d="m 1464.3749,-948.59773 c 9.0667,0 17.8409,-2.33979 25.4452,-6.7269 1.0237,-0.43871 2.0473,-0.73118 3.071,-0.73118 3.9484,0 7.1656,3.21721 7.1656,7.01937 0,0.29248 0.1462,0.43871 0.2925,0.43871 0.2924,0 0.4387,-0.14623 0.4387,-0.43871 0,0 0,0 0,0 v -21.05813 c 0,-0.14623 -0.1463,-0.29247 -0.4387,-0.29247 -0.1463,0 -0.2925,0.14624 -0.2925,0.29247 v 5.99572 c -3.2172,3.21722 -6.7269,5.84948 -10.5291,8.04304 0,0 0,0 -0.1462,0 -0.1462,0.14623 -0.4387,0.29247 -0.7312,0.43871 0,0 0,0 0,0 -7.3118,4.09463 -15.6474,6.28819 -24.2753,6.28819 -21.3506,0 -38.7528,-22.66674 -38.7528,-50.598 0,-27.93129 17.4022,-50.59799 38.7528,-50.59799 8.6279,0 16.9635,2.1935 24.2753,6.1419 0,0 0,0.1463 0,0.1463 0.2925,0.1462 0.585,0.2924 0.7312,0.2924 0.1462,0.1463 0.1462,0.1463 0.1462,0.1463 3.8022,2.1935 7.3119,4.8258 10.5291,7.8968 v 5.9957 c 0,0.2925 0.1462,0.4387 0.2925,0.4387 0.2924,0 0.4387,-0.1462 0.4387,-0.4387 0,0 0,-21.0581 0,-21.0581 0,-0.1463 -0.1463,-0.4387 -0.4387,-0.4387 -0.1463,0 -0.2925,0.2924 -0.2925,0.4387 0,3.9484 -3.2172,7.1656 -7.1656,7.1656 -1.0237,0 -2.0473,-0.2925 -3.071,-0.7312 -7.6043,-4.3871 -16.3785,-6.7269 -25.4452,-6.7269 -13.7463,0 -26.6152,5.2645 -36.4131,14.9162 -20.0344,20.0344 -20.0344,52.64529 0,72.67976 9.7979,9.79788 22.6668,15.06241 36.4131,15.06241 z"
         id="path850"
         style="stroke:#008080;stroke-width:1.5;stroke-miterlimit:4;stroke-dasharray:none;stroke-opacity:1;fill:#008c95;fill-opacity:1" /><path
         d="m 1515.7039,-949.32891 c -0.1463,0 -0.2925,0.14624 -0.2925,0.29247 0,0.29248 0.1462,0.43871 0.2925,0.43871 h 9.7979 c 0,0 0,0 0,0 h 11.8451 c 0,0 0,0 0,0 h 51.6217 c 0.2925,0 0.4387,-0.14623 0.4387,-0.43871 0,0 0,0 0,0 0,0 0,0 0,0 v -21.3506 c 0,-0.29247 -0.1462,-0.43871 -0.4387,-0.43871 -0.1462,0 -0.2925,0.14624 -0.2925,0.43871 0,11.55272 -9.5054,21.05813 -21.0581,21.05813 0,0 0,0 0,0 h -29.9786 v -50.15929 h 19.5958 c 0,0 0,0 0,0 5.1183,0 9.3591,4.09463 9.3591,9.21293 0,0.29247 0.1463,0.43871 0.4388,0.43871 0.1462,0 0.2924,-0.14624 0.2924,-0.43871 v -19.44953 c 0,-0.1462 -0.1462,-0.2925 -0.2924,-0.2925 -0.2925,0 -0.4388,0.1463 -0.4388,0.2925 0,5.2645 -4.2408,9.3592 -9.3591,9.3592 0,0 0,0 0,0 h -19.5958 v -40.8001 c 0,-4.2409 -2.486,-7.8968 -6.1419,-9.3592 h 36.1205 c 0,0 0,0 0,0 11.5527,0 21.0581,9.5054 21.0581,21.0581 0,0.1462 0.1463,0.4387 0.2925,0.4387 0.2925,0 0.4387,-0.2925 0.4387,-0.4387 0,0 0,-21.4968 0,-21.4968 0,-0.1463 -0.1462,-0.4387 -0.4387,-0.4387 h -61.4195 c 0,0 0,0.1462 0,0.1462 h -11.8452 c -0.1463,0 -0.2925,0.1462 -0.2925,0.2925 0,0.2924 0.1462,0.4387 0.2925,0.4387 5.1183,0 9.3591,4.2409 9.3591,9.3592 v 82.47762 c 0,5.1183 -4.2408,9.35917 -9.3591,9.35917 z"
         id="path852"
         style="stroke:#008080;stroke-width:1.5;stroke-miterlimit:4;stroke-dasharray:none;stroke-opacity:1;fill:#008c95;fill-opacity:1" /></g><g
       id="g112"
       transform="translate(1107.427,1000)"
       style="fill:#63666a;fill-opacity:1"><path
         d="m 0,0 c 0,-11.72 -9.501,-21.221 -21.221,-21.221 -11.719,0 -21.22,9.501 -21.22,21.221 0,11.72 9.501,21.221 21.22,21.221 C -9.501,21.221 0,11.72 0,0"
         style="fill:#63666a;fill-opacity:1;fill-rule:nonzero;stroke:none"
         id="path114" /></g></g></svg>
