<?xml version="1.0" encoding="UTF-8" standalone="no"?>
<!-- Created with Inkscape (http://www.inkscape.org/) -->

<svg
   version="1.1"
   id="svg2"
   xml:space="preserve"
   width="1933.3851"
   height="724.3194"
   viewBox="0 0 1933.3851 724.31938"
   sodipodi:docname="GG-Stacked.svg"
   inkscape:version="1.1 (c68e22c387, 2021-05-23)"
   xmlns:inkscape="http://www.inkscape.org/namespaces/inkscape"
   xmlns:sodipodi="http://sodipodi.sourceforge.net/DTD/sodipodi-0.dtd"
   xmlns="http://www.w3.org/2000/svg"
   xmlns:svg="http://www.w3.org/2000/svg"><defs
     id="defs6"><clipPath
       clipPathUnits="userSpaceOnUse"
       id="clipPath18"><path
         d="M 205.364,131.532 H 1794 V 1869.103 H 205.364 Z"
         id="path16" /></clipPath><clipPath
       clipPathUnits="userSpaceOnUse"
       id="clipPath34"><path
         d="M 0,2000 H 2000 V 0 H 0 Z"
         id="path32" /></clipPath><clipPath
       clipPathUnits="userSpaceOnUse"
       id="clipPath66"><path
         d="M 0,2000 H 2000 V 0 H 0 Z"
         id="path64" /></clipPath><clipPath
       clipPathUnits="userSpaceOnUse"
       id="clipPath86"><path
         d="M 0,2000 H 2000 V 0 H 0 Z"
         id="path84" /></clipPath><clipPath
       clipPathUnits="userSpaceOnUse"
       id="clipPath106"><path
         d="M 0,2000 H 2000 V 0 H 0 Z"
         id="path104" /></clipPath><clipPath
       clipPathUnits="userSpaceOnUse"
       id="clipPath126"><path
         d="M 0,2000 H 2000 V 0 H 0 Z"
         id="path124" /></clipPath><clipPath
       clipPathUnits="userSpaceOnUse"
       id="clipPath158"><path
         d="M 0,2000 H 2000 V 0 H 0 Z"
         id="path156" /></clipPath></defs><sodipodi:namedview
     id="namedview4"
     pagecolor="#ffffff"
     bordercolor="#999999"
     borderopacity="1"
     inkscape:pageshadow="0"
     inkscape:pageopacity="0"
     inkscape:pagecheckerboard="0"
     showgrid="false"
     inkscape:zoom="0.31874999"
     inkscape:cx="729.41179"
     inkscape:cy="462.74511"
     inkscape:window-width="1920"
     inkscape:window-height="1009"
     inkscape:window-x="1912"
     inkscape:window-y="332"
     inkscape:window-maximized="1"
     inkscape:current-layer="g865"
     fit-margin-top="2"
     fit-margin-left="2"
     fit-margin-bottom="2"
     fit-margin-right="2" /><g
     id="g8"
     inkscape:groupmode="layer"
     inkscape:label="Georgia Grace Logo"
     transform="matrix(1.3333333,0,0,-1.3333333,-366.64339,1695.493)"><g
       id="g15494"
       transform="translate(1.2812044e-5,-143.5294)"><g
         id="g15599"
         transform="translate(0,8.9999981)"
         style="stroke:#000000;stroke-width:0.75;stroke-miterlimit:4;stroke-dasharray:none;stroke-opacity:1"><g
           id="g865"
           transform="translate(0,-2.1964746e-5)"><g
             aria-label="GEORGIA"
             transform="matrix(1,0,0,-1,1.044698e-5,0)"
             id="text5305"
             style="font-size:332.405px;line-height:1.25;font-family:'Black Gold VP';-inkscape-font-specification:'Black Gold VP';fill:#8986ca;stroke:#8080c0;stroke-width:1.5;stroke-miterlimit:4;stroke-dasharray:none;stroke-opacity:1;fill-opacity:1"><path
               d="m 394.1521,-1403.5668 c -31.24607,0 -60.49771,11.9666 -82.76884,33.9053 -45.53949,45.5395 -45.53949,119.6658 0,165.2053 21.93873,21.9387 51.19037,34.2377 82.10403,34.2377 0,0 0.33241,0 0.66481,0 0,0 0,0 0,0 18.61468,0 37.56177,-4.6537 54.18202,-13.2962 v 12.6314 c 0,0.3324 0.3324,0.6648 0.66481,0.6648 h 26.9248 c 0,0 0,0 0,0 h 22.27114 c 0.3324,0 0.66481,-0.3324 0.66481,-0.9972 0,-0.3324 -0.33241,-0.6648 -0.66481,-0.6648 -11.63418,0 -21.27392,-9.6398 -21.27392,-21.2739 v -71.7995 c 0,-9.3073 -5.98329,-17.6175 -14.29342,-20.9415 h 13.2962 c 0.66481,0 0.99722,-0.6648 0.99722,-0.9972 0,-0.6648 -0.33241,-0.9973 -0.99722,-0.9973 h -26.9248 c 0,0 -0.33241,0 -0.33241,0 -0.3324,0.3325 -0.3324,0.6649 -0.3324,0.9973 v 101.3835 c -16.62025,8.9749 -35.56734,13.6286 -54.18202,13.6286 -0.3324,0 -0.66481,0 -0.66481,0 -48.19872,-0.6648 -87.42251,-51.8552 -87.42251,-115.0121 0,-63.4894 39.55619,-115.0122 88.08732,-115.0122 0,0 0,0 0,0 19.27949,0 38.55898,4.9861 55.17923,14.2934 0,0 0.33241,0 0.33241,0 0,0 0,0 0,0 0.3324,0.3325 0.99721,0.6649 1.32962,0.6649 0,0 0.3324,0 0.3324,0 0,0 0,0 0,0 8.64253,4.986 16.62025,11.3017 23.93316,18.2822 v 13.6286 c 0,0.6648 0.33241,0.9973 0.66481,0.9973 0.66481,0 0.99722,-0.3325 0.99722,-0.9973 0,0 0,-47.8663 0,-47.8663 0,-0.3324 -0.33241,-0.9972 -0.99722,-0.9972 -0.3324,0 -0.66481,0.6648 -0.66481,0.9972 0,8.975 -7.31291,16.2879 -16.28784,16.2879 -2.32684,0 -4.65367,-0.6648 -6.98051,-1.6621 -0.66481,-0.3324 -0.99721,-0.6648 -1.66202,-0.9972 0,0 0,0 0,0 0,0 0,0 0,0 0,0 0,0 0,0 -16.95266,-9.3073 -36.56455,-14.2934 -56.17645,-14.2934 z"
               id="path841"
               style="stroke:#8080c0;stroke-width:1.5;stroke-miterlimit:4;stroke-dasharray:none;stroke-opacity:1;fill:#8986ca;fill-opacity:1" /><path
               d="m 533.09683,-1171.8805 c -0.33241,0 -0.66481,0.3324 -0.66481,0.6648 0,0.6648 0.3324,0.9972 0.66481,0.9972 h 22.27113 c 0,0 0,0 0,0 h 26.92481 c 0,0 0,0 0,0 h 117.33896 c 0.66481,0 0.99722,-0.3324 0.99722,-0.9972 0,0 0,0 0,0 0,0 0,0 0,0 v -48.5311 c 0,-0.6648 -0.33241,-0.9972 -0.99722,-0.9972 -0.3324,0 -0.66481,0.3324 -0.66481,0.9972 0,26.26 -21.60632,47.8663 -47.86632,47.8663 0,0 0,0 0,0 h -68.14302 v -114.0149 h 44.54227 c 0,0 0,0 0,0 11.63417,0 21.27392,9.3073 21.27392,20.9415 0,0.6648 0.3324,0.9972 0.99721,0.9972 0.33241,0 0.66481,-0.3324 0.66481,-0.9972 v -44.2099 c 0,-0.3324 -0.3324,-0.6648 -0.66481,-0.6648 -0.66481,0 -0.99721,0.3324 -0.99721,0.6648 0,11.9666 -9.63975,21.2739 -21.27392,21.2739 0,0 0,0 0,0 h -44.54227 v -92.7409 c 0,-9.6398 -5.65089,-17.9499 -13.96101,-21.274 h 82.10403 c 0,0 0,0 0,0 26.26,0 47.86632,21.6064 47.86632,47.8664 0,0.3324 0.33241,0.9972 0.66481,0.9972 0.66481,0 0.99722,-0.6648 0.99722,-0.9972 0,0 0,-48.8636 0,-48.8636 0,-0.3324 -0.33241,-0.9972 -0.99722,-0.9972 h -139.6101 c 0,0 0,0.3324 0,0.3324 h -26.9248 c -0.33241,0 -0.66481,0.3324 -0.66481,0.6648 0,0.6648 0.3324,0.9972 0.66481,0.9972 11.63417,0 21.27392,9.6398 21.27392,21.274 v 187.4764 c 0,11.6341 -9.63975,21.2739 -21.27392,21.2739 z"
               id="path843"
               style="stroke:#8080c0;stroke-width:1.5;stroke-miterlimit:4;stroke-dasharray:none;stroke-opacity:1;fill:#8986ca;fill-opacity:1" /><path
               d="m 850.87549,-1170.2185 c 64.48657,0 116.67415,-52.1876 116.67415,-116.6741 0,-64.4866 -52.18758,-116.6742 -116.67415,-116.6742 -64.48657,0 -116.67415,52.1876 -116.67415,116.6742 0,64.4865 52.18758,116.6741 116.67415,116.6741 z m 0,-1.662 c -48.53113,0 -88.08732,-51.5228 -88.08732,-115.0121 0,-63.4894 39.55619,-115.0122 88.08732,-115.0122 48.53113,0 88.08732,51.5228 88.08732,115.0122 0,63.4893 -39.55619,115.0121 -88.08732,115.0121 z"
               id="path845"
               style="stroke:#8080c0;stroke-width:1.5;stroke-miterlimit:4;stroke-dasharray:none;stroke-opacity:1;fill:#8986ca;fill-opacity:1" /><path
               d="m 978.51831,-1171.8805 c -0.33241,0 -0.66481,0.3324 -0.66481,0.6648 0,0.6648 0.3324,0.9972 0.66481,0.9972 h 22.27109 c 0,0 0,0 0,0 h 26.9248 c 0,0 0,0 0,0 h 21.9388 c 0.6648,0 0.9972,-0.3324 0.9972,-0.9972 0,-0.3324 -0.3324,-0.6648 -0.9972,-0.6648 -11.6342,0 -21.2739,-9.6398 -21.2739,-21.2739 v -92.741 h 58.8356 c 0,0 0,0 0,0 16.6203,0 30.2489,25.5952 30.2489,56.8412 v 35.8998 c 0,12.6314 10.3046,22.9359 22.9359,22.9359 h 26.9248 c 0.3325,0 0.9973,-0.3324 0.9973,-0.6648 0,-0.6648 -0.6648,-0.9972 -0.9973,-0.9972 -11.6341,0 -21.2739,-9.6398 -21.2739,-21.2739 v -35.8998 c 0,-28.9192 -20.9415,-53.1848 -48.5311,-57.8384 27.5896,-4.9861 48.5311,-28.9193 48.5311,-57.8385 0,-32.5757 -26.26,-58.8357 -58.8357,-58.8357 h -81.7716 c 0,0 0,0 0,0 h -26.92479 c -0.33241,0 -0.66481,0.3324 -0.66481,0.6648 0,0.6648 0.3324,0.9972 0.66481,0.9972 11.63417,0 21.27392,9.6398 21.27392,21.274 v 187.4764 c 0,11.6341 -9.63975,21.2739 -21.27392,21.2739 z m 108.69639,-230.0243 c 16.6203,0 30.2489,25.5952 30.2489,57.1737 0,31.2461 -13.6286,56.8412 -30.2489,56.8412 0,0 0,0 0,0 h -58.8356 v -92.7409 c 0,-9.6398 -5.6509,-17.9499 -13.9611,-21.274 z"
               id="path847"
               style="stroke:#8080c0;stroke-width:1.5;stroke-miterlimit:4;stroke-dasharray:none;stroke-opacity:1;fill:#8986ca;fill-opacity:1" /><path
               d="m 1288.3192,-1403.5668 c -31.2461,0 -60.4977,11.9666 -82.7688,33.9053 -45.5395,45.5395 -45.5395,119.6658 0,165.2053 21.9387,21.9387 51.1903,34.2377 82.104,34.2377 0,0 0.3324,0 0.6648,0 0,0 0,0 0,0 18.6147,0 37.5618,-4.6537 54.182,-13.2962 v 12.6314 c 0,0.3324 0.3324,0.6648 0.6648,0.6648 h 26.9248 c 0,0 0,0 0,0 h 22.2712 c 0.3324,0 0.6648,-0.3324 0.6648,-0.9972 0,-0.3324 -0.3324,-0.6648 -0.6648,-0.6648 -11.6342,0 -21.2739,-9.6398 -21.2739,-21.2739 v -71.7995 c 0,-9.3073 -5.9833,-17.6175 -14.2935,-20.9415 h 13.2962 c 0.6649,0 0.9973,-0.6648 0.9973,-0.9972 0,-0.6648 -0.3324,-0.9973 -0.9973,-0.9973 h -26.9248 c 0,0 -0.3324,0 -0.3324,0 -0.3324,0.3325 -0.3324,0.6649 -0.3324,0.9973 v 101.3835 c -16.6202,8.9749 -35.5673,13.6286 -54.182,13.6286 -0.3324,0 -0.6648,0 -0.6648,0 -48.1987,-0.6648 -87.4225,-51.8552 -87.4225,-115.0121 0,-63.4894 39.5562,-115.0122 88.0873,-115.0122 0,0 0,0 0,0 19.2795,0 38.559,4.9861 55.1792,14.2934 0,0 0.3325,0 0.3325,0 0,0 0,0 0,0 0.3324,0.3325 0.9972,0.6649 1.3296,0.6649 0,0 0.3324,0 0.3324,0 0,0 0,0 0,0 8.6425,4.986 16.6202,11.3017 23.9331,18.2822 v 13.6286 c 0,0.6648 0.3324,0.9973 0.6648,0.9973 0.6649,0 0.9973,-0.3325 0.9973,-0.9973 0,0 0,-47.8663 0,-47.8663 0,-0.3324 -0.3324,-0.9972 -0.9973,-0.9972 -0.3324,0 -0.6648,0.6648 -0.6648,0.9972 0,8.975 -7.3129,16.2879 -16.2878,16.2879 -2.3268,0 -4.6537,-0.6648 -6.9805,-1.6621 -0.6648,-0.3324 -0.9972,-0.6648 -1.662,-0.9972 0,0 0,0 0,0 0,0 0,0 0,0 0,0 0,0 0,0 -16.9527,-9.3073 -36.5646,-14.2934 -56.1765,-14.2934 z"
               id="path849"
               style="stroke:#8080c0;stroke-width:1.5;stroke-miterlimit:4;stroke-dasharray:none;stroke-opacity:1;fill:#8986ca;fill-opacity:1" /><path
               d="m 1427.2639,-1171.8805 c -0.3325,0 -0.6649,0.3324 -0.6649,0.6648 0,0.6648 0.3324,0.9972 0.6649,0.9972 h 22.2711 c 0,0 0,0 0,0 h 26.9248 c 0,0 0,0 0,0 h 21.9387 c 0.6648,0 0.9972,-0.3324 0.9972,-0.9972 0,-0.3324 -0.3324,-0.6648 -0.9972,-0.6648 -11.6342,0 -21.2739,-9.6398 -21.2739,-21.2739 v -187.4764 c 0,-11.6342 9.6397,-21.274 21.2739,-21.274 0.6648,0 0.9972,-0.3324 0.9972,-0.9972 0,-0.3324 -0.3324,-0.6648 -0.9972,-0.6648 h -71.1346 c -0.3325,0 -0.6649,0.3324 -0.6649,0.6648 0,0.6648 0.3324,0.9972 0.6649,0.9972 11.6341,0 21.2739,9.6398 21.2739,21.274 v 187.4764 c 0,11.6341 -9.6398,21.2739 -21.2739,21.2739 z"
               id="path851"
               style="stroke:#8080c0;stroke-width:1.5;stroke-miterlimit:4;stroke-dasharray:none;stroke-opacity:1;fill:#8986ca;fill-opacity:1" /><path
               d="m 1533.3006,-1171.8805 c -0.3324,0 -0.6648,0.3324 -0.6648,0.6648 0,0.6648 0.3324,0.9972 0.6648,0.9972 h 22.2711 c 0,0 0,0 0,0 0,0 0,0 0,0 h 21.9388 c 0.6648,0 0.9972,-0.3324 0.9972,-0.9972 0,-0.3324 -0.3324,-0.6648 -0.9972,-0.6648 -5.3185,0 -9.6398,-1.9944 -12.6314,-5.6509 -2.9917,-3.9889 -3.3241,-9.6397 -1.6621,-15.2906 l 50.5256,-161.8813 50.1932,161.8813 v 0 c 0,0 0,0 0,0 v 0 c 1.662,5.6509 1.3296,11.3017 -1.6621,15.2906 -2.6592,3.6565 -7.3129,5.6509 -12.6314,5.6509 -0.6648,0 -0.9972,0.3324 -0.9972,0.6648 0,0.6648 0.3324,0.9972 0.9972,0.9972 h 21.9388 c 0,0 0,0 0,0 h 28.2544 c 0,0 0,0 0,0 h 22.2711 c 0.3324,0 0.6648,-0.3324 0.6648,-0.9972 0,-0.3324 -0.3324,-0.6648 -0.6648,-0.6648 -11.9665,0 -24.5979,-9.6398 -28.2544,-21.6063 l -65.1514,-209.7476 c 0,0 0,0 0,0 v 0 c 0,0 0,0 0,0 0,0 -0.3324,0 -0.3324,0 0,0 0,0 0,0 0,-0.3324 0,-0.3324 0,-0.3324 0,0 0,0 0,0 -0.3324,0 -0.3324,0 -0.3324,0 0,0 0,0 0,0 0,0 0,0 0,0 0,0 -0.3324,0 -0.3324,0 0,0 0,-0.3324 0,-0.3324 0,0 0,0.3324 0,0.3324 0,0 -0.3324,0 -0.3324,0 0,0 0,0 0,0 0,0 0,0 0,0 -0.3324,0 -0.3324,0 -0.3324,0 0,0 0,0 0,0.3324 0,0 0,0 0,0 0,0 0,0 -0.3324,0 l -13.961,45.5395 -51.1904,164.2081 c -3.6564,11.9665 -16.2878,21.6063 -28.2544,21.6063 z"
               id="path853"
               style="stroke:#8080c0;stroke-width:1.5;stroke-miterlimit:4;stroke-dasharray:none;stroke-opacity:1;fill:#8986ca;fill-opacity:1" /></g><g
             aria-label="GRACE"
             transform="matrix(1,0,0,-1,-3.944488e-5,0)"
             id="text10933"
             style="font-size:332.405px;line-height:1.25;font-family:'Black Gold VP';-inkscape-font-specification:'Black Gold VP';fill:#008c95;stroke:#008080;stroke-width:1.5;stroke-miterlimit:4;stroke-dasharray:none;stroke-opacity:1;fill-opacity:1"><path
               d="m 590.1044,-1098.508 c -31.24607,0 -60.49771,11.9666 -82.76884,33.9054 -45.53949,45.5394 -45.53949,119.66575 0,165.20524 21.93873,21.93873 51.19037,34.23771 82.10403,34.23771 0,0 0.33241,0 0.66481,0 0,0 0,0 0,0 18.61468,0 37.56177,-4.65367 54.18202,-13.2962 v 12.63139 c 0,0.33241 0.3324,0.66481 0.66481,0.66481 h 26.9248 c 0,0 0,0 0,0 h 22.27114 c 0.3324,0 0.66481,-0.3324 0.66481,-0.99721 0,-0.33241 -0.33241,-0.66481 -0.66481,-0.66481 -11.63418,0 -21.27392,-9.63975 -21.27392,-21.27392 v -71.79948 c 0,-9.30734 -5.98329,-17.61746 -14.29342,-20.94151 h 13.2962 c 0.66481,0 0.99722,-0.66481 0.99722,-0.99722 0,-0.66481 -0.33241,-0.99721 -0.99722,-0.99721 h -26.9248 c 0,0 -0.33241,0 -0.33241,0 -0.3324,0.3324 -0.3324,0.66481 -0.3324,0.99721 v 101.38352 c -16.62025,8.97494 -35.56734,13.62861 -54.18202,13.62861 -0.3324,0 -0.66481,0 -0.66481,0 -48.19872,-0.66481 -87.42251,-51.85518 -87.42251,-115.01213 0,-63.4894 39.55619,-115.0121 88.08732,-115.0121 0,0 0,0 0,0 19.27949,0 38.55898,4.986 55.17923,14.2934 0,0 0.33241,0 0.33241,0 0,0 0,0 0,0 0.3324,0.3324 0.99721,0.6648 1.32962,0.6648 0,0 0.3324,0 0.3324,0 0,0 0,0 0,0 8.64253,4.9861 16.62025,11.3018 23.93316,18.2823 v 13.6286 c 0,0.6648 0.33241,0.9972 0.66481,0.9972 0.66481,0 0.99722,-0.3324 0.99722,-0.9972 0,0 0,-47.8663 0,-47.8663 0,-0.3324 -0.33241,-0.9973 -0.99722,-0.9973 -0.3324,0 -0.66481,0.6649 -0.66481,0.9973 0,8.9749 -7.31291,16.2878 -16.28784,16.2878 -2.32684,0 -4.65367,-0.6648 -6.98051,-1.662 -0.66481,-0.3324 -0.99721,-0.6648 -1.66202,-0.9972 0,0 0,0 0,0 0,0 0,0 0,0 0,0 0,0 0,0 -16.95266,-9.3074 -36.56455,-14.2935 -56.17645,-14.2935 z"
               id="path856"
               style="stroke:#008080;stroke-width:1.5;stroke-miterlimit:4;stroke-dasharray:none;stroke-opacity:1;fill:#008c95;fill-opacity:1" /><path
               d="m 729.04913,-866.82167 c -0.33241,0 -0.66481,0.3324 -0.66481,0.66481 0,0.66481 0.3324,0.99721 0.66481,0.99721 h 22.27113 c 0,0 0,0 0,0 h 26.92481 c 0,0 0,0 0,0 h 21.93873 c 0.66481,0 0.99721,-0.3324 0.99721,-0.99721 0,-0.33241 -0.3324,-0.66481 -0.99721,-0.66481 -11.63418,0 -21.27392,-9.63975 -21.27392,-21.27392 v -92.74099 h 58.83568 c 0,0 0,0 0,0 16.62025,0 30.24886,25.59518 30.24886,56.84125 v 35.89974 c 0,12.63139 10.30455,22.93594 22.93594,22.93594 h 26.92481 c 0.3324,0 0.99721,-0.3324 0.99721,-0.66481 0,-0.66481 -0.66481,-0.99721 -0.99721,-0.99721 -11.63418,0 -21.27392,-9.63975 -21.27392,-21.27392 v -35.89974 c 0,-28.91924 -20.94152,-53.1848 -48.53113,-57.83847 27.58961,-4.98607 48.53113,-28.9192 48.53113,-57.8385 0,-32.5757 -26.26,-58.8357 -58.83569,-58.8357 h -81.77163 c 0,0 0,0 0,0 h -26.9248 c -0.33241,0 -0.66481,0.3325 -0.66481,0.6649 0,0.6648 0.3324,0.9972 0.66481,0.9972 11.63417,0 21.27392,9.6397 21.27392,21.2739 v 187.47641 c 0,11.63417 -9.63975,21.27392 -21.27392,21.27392 z m 108.69643,-230.02423 c 16.62025,0 30.24886,25.5952 30.24886,57.1736 0,31.2461 -13.62861,56.84129 -30.24886,56.84129 0,0 0,0 0,0 h -58.83568 v -92.74099 c 0,-9.6398 -5.65089,-17.9499 -13.96101,-21.2739 z"
               id="path858"
               style="stroke:#008080;stroke-width:1.5;stroke-miterlimit:4;stroke-dasharray:none;stroke-opacity:1;fill:#008c95;fill-opacity:1" /><path
               d="m 952.75717,-866.82167 c -0.33241,0 -0.66481,0.3324 -0.66481,0.66481 0,0.66481 0.3324,0.99721 0.66481,0.99721 h 22.27113 c 0,0 0,0 0,0 0,0 0,0 0,0 h 21.93873 c 0.66481,0 0.99722,-0.3324 0.99722,-0.99721 0,-0.33241 -0.33241,-0.66481 -0.99722,-0.66481 -5.31848,0 -9.63974,-1.99443 -12.63139,-5.65089 -2.99164,-3.98886 -3.32405,-9.63974 -1.66202,-15.29063 l 50.52558,-161.88121 50.1931,161.88121 v 0 c 0,0 0,0 0,0 v 0 c 1.6621,5.65089 1.3297,11.30177 -1.662,15.29063 -2.6592,3.65646 -7.3129,5.65089 -12.6314,5.65089 -0.6648,0 -0.9972,0.3324 -0.9972,0.66481 0,0.66481 0.3324,0.99721 0.9972,0.99721 h 21.9387 c 0,0 0,0 0,0 h 28.2545 c 0,0 0,0 0,0 h 22.2711 c 0.3324,0 0.6648,-0.3324 0.6648,-0.99721 0,-0.33241 -0.3324,-0.66481 -0.6648,-0.66481 -11.9666,0 -24.598,-9.63975 -28.2544,-21.60633 l -65.1514,-209.7475 c 0,0 0,0 0,0 v 0 c 0,0 0,0 0,0 0,0 -0.3324,0 -0.3324,0 0,0 0,0 0,0 0,-0.3325 0,-0.3325 0,-0.3325 0,0 0,0 0,0 -0.3324,0 -0.3324,0 -0.3324,0 0,0 0,0 0,0 0,0 0,0 0,0 0,0 -0.3324,0 -0.3324,0 0,0 0,-0.3324 0,-0.3324 0,0 0,0.3324 0,0.3324 0,0 -0.3324,0 -0.3324,0 0,0 0,0 0,0 0,0 0,0 0,0 -0.3324,0 -0.3324,0 -0.3324,0 0,0 0,0 0,0.3325 0,0 0,0 0,0 0,0 0,0 -0.3324,0 l -13.961,45.5394 -51.19041,164.2081 c -3.65645,11.96658 -16.28784,21.60633 -28.25442,21.60633 z"
               id="path860"
               style="stroke:#008080;stroke-width:1.5;stroke-miterlimit:4;stroke-dasharray:none;stroke-opacity:1;fill:#008c95;fill-opacity:1" /><path
               d="m 1242.6133,-865.15965 c 20.6091,0 40.5534,-5.31848 57.8385,-15.29063 2.3268,-0.99721 4.6537,-1.66202 6.9805,-1.66202 8.9749,0 16.2878,7.31291 16.2878,15.95544 0,0.66481 0.3324,0.99721 0.6648,0.99721 0.6649,0 0.9973,-0.3324 0.9973,-0.99721 0,0 0,0 0,0 v -47.86632 c 0,-0.33241 -0.3324,-0.66481 -0.9973,-0.66481 -0.3324,0 -0.6648,0.3324 -0.6648,0.66481 v 13.6286 c -7.3129,7.31291 -15.2906,13.2962 -23.9331,18.28228 0,0 0,0 -0.3324,0 -0.3324,0.3324 -0.9972,0.66481 -1.6621,0.99721 0,0 0,0 0,0 -16.6202,9.30734 -35.5673,14.29342 -55.1792,14.29342 -48.5311,0 -88.0873,-51.52278 -88.0873,-115.01213 0,-63.4894 39.5562,-115.0121 88.0873,-115.0121 19.6119,0 38.559,4.986 55.1792,13.961 0,0 0,0.3324 0,0.3324 0.6649,0.3324 1.3297,0.6648 1.6621,0.6648 0.3324,0.3324 0.3324,0.3324 0.3324,0.3324 8.6425,4.9861 16.6202,10.9694 23.9331,17.9499 v 13.6286 c 0,0.6648 0.3324,0.9972 0.6648,0.9972 0.6649,0 0.9973,-0.3324 0.9973,-0.9972 0,0 0,-47.8663 0,-47.8663 0,-0.3324 -0.3324,-0.9973 -0.9973,-0.9973 -0.3324,0 -0.6648,0.6649 -0.6648,0.9973 0,8.9749 -7.3129,16.2878 -16.2878,16.2878 -2.3268,0 -4.6537,-0.6648 -6.9805,-1.662 -17.2851,-9.9722 -37.2294,-15.2907 -57.8385,-15.2907 -31.2461,0 -60.4977,11.9666 -82.7688,33.9054 -45.5395,45.5394 -45.5395,119.66575 0,165.20524 22.2711,22.27113 51.5227,34.23771 82.7688,34.23771 z"
               id="path862"
               style="stroke:#008080;stroke-width:1.5;stroke-miterlimit:4;stroke-dasharray:none;stroke-opacity:1;fill:#008c95;fill-opacity:1" /><path
               d="m 1359.2871,-866.82167 c -0.3324,0 -0.6648,0.3324 -0.6648,0.66481 0,0.66481 0.3324,0.99721 0.6648,0.99721 h 22.2711 c 0,0 0,0 0,0 h 26.9248 c 0,0 0,0 0,0 h 117.339 c 0.6648,0 0.9972,-0.3324 0.9972,-0.99721 0,0 0,0 0,0 0,0 0,0 0,0 v -48.53113 c 0,-0.66481 -0.3324,-0.99722 -0.9972,-0.99722 -0.3324,0 -0.6648,0.33241 -0.6648,0.99722 0,26.25999 -21.6064,47.86632 -47.8664,47.86632 0,0 0,0 0,0 h -68.143 v -114.01491 h 44.5423 c 0,0 0,0 0,0 11.6342,0 21.2739,9.30734 21.2739,20.94151 0,0.66481 0.3324,0.99721 0.9972,0.99721 0.3324,0 0.6648,-0.3324 0.6648,-0.99721 v -44.20983 c 0,-0.3324 -0.3324,-0.6648 -0.6648,-0.6648 -0.6648,0 -0.9972,0.3324 -0.9972,0.6648 0,11.96655 -9.6397,21.27389 -21.2739,21.27389 0,0 0,0 0,0 h -44.5423 v -92.74099 c 0,-9.6398 -5.6509,-17.9499 -13.961,-21.2739 h 82.104 c 0,0 0,0 0,0 26.26,0 47.8664,21.6063 47.8664,47.8663 0,0.3324 0.3324,0.9972 0.6648,0.9972 0.6648,0 0.9972,-0.6648 0.9972,-0.9972 0,0 0,-48.8635 0,-48.8635 0,-0.3324 -0.3324,-0.9973 -0.9972,-0.9973 h -139.6101 c 0,0 0,0.3324 0,0.3324 h -26.9248 c -0.3324,0 -0.6648,0.3325 -0.6648,0.6649 0,0.6648 0.3324,0.9972 0.6648,0.9972 11.6341,0 21.2739,9.6397 21.2739,21.2739 v 187.47641 c 0,11.63417 -9.6398,21.27392 -21.2739,21.27392 z"
               id="path864"
               style="stroke:#008080;stroke-width:1.5;stroke-miterlimit:4;stroke-dasharray:none;stroke-opacity:1;fill:#008c95;fill-opacity:1" /></g></g></g></g></g></svg>
